<?xml version="1.0" standalone="no"?>
<!DOCTYPE svg PUBLIC "-//W3C//DTD SVG 20010904//EN"
 "http://www.w3.org/TR/2001/REC-SVG-20010904/DTD/svg10.dtd">
<svg version="1.0" xmlns="http://www.w3.org/2000/svg"
 width="300.000000pt" height="114.000000pt" viewBox="0 0 300.000000 114.000000"
 preserveAspectRatio="xMidYMid meet">

<g transform="translate(0.000000,114.000000) scale(0.100000,-0.100000)"
fill="#000000" stroke="none">
<path d="M32 1097 l-32 -33 2 -225 3 -224 49 -3 c43 -3 52 0 81 28 l33 32 21
-31 c21 -29 27 -31 81 -31 48 0 64 4 89 26 17 14 31 33 31 41 0 9 -34 56 -75
104 l-76 88 77 115 c47 71 74 121 71 131 -5 11 -21 15 -60 15 -62 0 -92 -18
-129 -78 l-23 -37 -5 55 -5 55 -50 3 c-46 3 -53 0 -83 -31z m120 -59 c2 -42 8
-73 14 -75 7 -2 33 30 60 72 l47 75 50 0 c60 0 61 5 -33 -135 -62 -92 -70
-109 -58 -123 7 -9 41 -50 75 -90 35 -40 63 -77 63 -82 0 -6 -22 -10 -49 -10
-49 0 -51 1 -96 60 -59 77 -73 77 -77 3 l-3 -58 -37 -3 -38 -3 0 220 0 221 40
0 39 0 3 -72z m-125 -20 c-3 -8 -6 -5 -6 6 -1 11 2 17 5 13 3 -3 4 -12 1 -19z
m0 -175 c-2 -32 -3 -8 -3 52 0 61 1 87 3 58 2 -29 2 -78 0 -110z m20 -65 c-2
-35 -3 -7 -3 62 0 69 1 97 3 63 2 -35 2 -91 0 -125z m-20 -75 c-2 -16 -4 -5
-4 22 0 28 2 40 4 28 2 -13 2 -35 0 -50z"/>
<path d="M605 1116 c-16 -8 -50 -35 -75 -60 l-45 -47 0 -197 0 -197 49 -3 c44
-3 52 0 82 29 28 27 34 40 34 76 0 39 2 43 25 43 24 0 25 -3 25 -59 0 -85 4
-91 59 -91 40 0 52 5 79 33 l32 33 0 179 c0 204 -9 233 -75 261 -43 18 -150
18 -190 0z m216 -44 l29 -32 0 -185 0 -185 -40 0 -40 0 0 75 0 75 -70 0 -69 0
-3 -72 -3 -73 -37 -3 -38 -3 0 186 c0 108 4 194 10 205 20 38 60 50 148 48 80
-3 85 -4 113 -36z m-294 -139 c-3 -10 -5 -4 -5 12 0 17 2 24 5 18 2 -7 2 -21
0 -30z m-20 -140 c-2 -32 -3 -8 -3 52 0 61 1 87 3 58 2 -29 2 -78 0 -110z m20
-35 c-2 -29 -3 -8 -3 47 0 55 1 79 3 53 2 -26 2 -71 0 -100z m223 -62 c0 -30
-26 -16 -28 15 -2 28 -1 29 13 16 8 -9 15 -23 15 -31z m-243 2 c-3 -8 -6 -5
-6 6 -1 11 2 17 5 13 3 -3 4 -12 1 -19z"/>
<path d="M637 1024 c-4 -4 -7 -31 -7 -61 l0 -53 70 0 71 0 -3 58 -3 57 -60 3
c-34 2 -64 0 -68 -4z m63 -83 c0 -10 -9 -16 -25 -16 -19 0 -25 5 -25 21 0 17
5 20 25 16 15 -2 25 -11 25 -21z"/>
<path d="M1065 1112 c-16 -11 -47 -37 -67 -60 -44 -49 -52 -88 -46 -239 6
-169 35 -203 173 -203 86 0 113 11 167 67 52 53 58 78 58 219 0 143 -11 183
-62 214 -45 27 -179 29 -223 2z m227 -31 l33 -29 3 -145 c4 -166 -5 -199 -63
-223 -48 -20 -142 -18 -185 4 -53 26 -60 50 -60 205 0 198 13 215 157 216 78
1 85 -1 115 -28z m-295 -103 c-3 -8 -6 -5 -6 6 -1 11 2 17 5 13 3 -3 4 -12 1
-19z m-20 -145 c-2 -27 -3 -5 -3 47 0 52 1 74 3 48 2 -27 2 -69 0 -95z m20
-25 c-2 -29 -3 -8 -3 47 0 55 1 79 3 53 2 -26 2 -71 0 -100z m-20 -60 c-3 -8
-6 -5 -6 6 -1 11 2 17 5 13 3 -3 4 -12 1 -19z"/>
<path d="M1105 1017 c-3 -7 -4 -67 -3 -133 l3 -119 70 0 70 0 0 130 0 130 -68
3 c-49 2 -69 -1 -72 -11z m75 -148 l0 -100 -27 3 -28 3 -3 98 -3 97 31 0 30 0
0 -101z m27 14 c-2 -16 -4 -5 -4 22 0 28 2 40 4 28 2 -13 2 -35 0 -50z m20
-65 c-2 -18 -4 -6 -4 27 0 33 2 48 4 33 2 -15 2 -42 0 -60z m-20 0 c-3 -8 -6
-5 -6 6 -1 11 2 17 5 13 3 -3 4 -12 1 -19z"/>
<path d="M1545 1111 c-42 -26 -92 -81 -104 -114 -16 -42 -14 -281 3 -321 24
-58 58 -76 143 -76 68 0 76 -2 97 -27 l23 -26 34 21 c19 11 49 37 68 56 29 30
32 38 21 51 -10 12 -10 26 0 74 7 35 11 104 8 172 -5 174 -36 209 -185 209
-59 0 -85 -5 -108 -19z m224 -17 c40 -28 51 -73 51 -205 0 -67 -5 -139 -11
-160 -10 -30 -9 -42 1 -54 15 -18 13 -20 -34 -47 -15 -8 -22 -6 -35 10 -13 17
-30 21 -99 24 -80 3 -85 5 -113 36 l-29 32 0 156 0 156 34 34 c34 34 35 34
123 34 66 0 95 -4 112 -16z m-292 -126 c-3 -8 -6 -5 -6 6 -1 11 2 17 5 13 3
-3 4 -12 1 -19z m-17 -93 c0 -57 -4 -95 -10 -95 -11 0 -14 130 -4 168 11 40
14 24 14 -73z m17 -77 c-2 -29 -3 -8 -3 47 0 55 1 79 3 53 2 -26 2 -71 0 -100z
m-17 -58 c0 -5 -2 -10 -4 -10 -3 0 -8 5 -11 10 -3 6 -1 10 4 10 6 0 11 -4 11
-10z"/>
<path d="M1591 1017 c-8 -10 -11 -54 -9 -138 l3 -124 56 -3 c84 -4 90 7 87
154 l-3 119 -61 3 c-43 2 -64 -1 -73 -11z m79 -152 l0 -95 -35 0 -35 0 0 95 0
95 35 0 35 0 0 -95z m17 18 c-2 -16 -4 -3 -4 27 0 30 2 43 4 28 2 -16 2 -40 0
-55z m20 -55 c-2 -18 -4 -6 -4 27 0 33 2 48 4 33 2 -15 2 -42 0 -60z"/>
<path d="M1937 1102 l-27 -28 0 -191 c0 -180 1 -192 22 -218 12 -15 36 -34 54
-41 44 -19 148 -18 188 1 50 24 106 87 117 131 10 44 12 334 3 358 -4 12 -20
16 -56 16 -41 0 -54 -5 -79 -29 l-29 -29 0 -146 0 -146 -30 0 -30 0 -2 173 -3
172 -50 3 c-44 3 -54 -1 -78 -26z m115 -164 l3 -173 68 -3 67 -3 0 176 0 175
45 0 45 0 0 -175 c0 -197 -6 -223 -62 -246 -42 -18 -144 -18 -186 0 -56 23
-62 49 -62 246 l0 175 40 0 40 0 2 -172z m-105 110 c-3 -8 -6 -5 -6 6 -1 11 2
17 5 13 3 -3 4 -12 1 -19z m233 2 c0 -5 -4 -10 -10 -10 -5 0 -10 5 -10 10 0 6
5 10 10 10 6 0 10 -4 10 -10z m-253 -207 c-2 -38 -3 -7 -3 67 0 74 1 105 3 68
2 -38 2 -98 0 -135z m220 60 c-2 -27 -3 -5 -3 47 0 52 1 74 3 48 2 -27 2 -69
0 -95z m-200 -80 c-2 -38 -3 -7 -3 67 0 74 1 105 3 68 2 -38 2 -98 0 -135z
m229 89 c5 -74 4 -102 -5 -102 -7 0 -11 33 -11 107 0 58 2 104 5 101 3 -2 8
-50 11 -106z"/>
<path d="M2397 1102 l-27 -28 2 -230 3 -229 45 -2 c38 -3 50 2 78 27 l32 30
-2 228 -3 227 -50 3 c-44 3 -54 -1 -78 -26z m118 -212 l0 -215 -40 0 -40 0 -3
218 -2 218 42 -3 43 -3 0 -215z m-128 128 c-3 -8 -6 -5 -6 6 -1 11 2 17 5 13
3 -3 4 -12 1 -19z m20 -145 c-2 -27 -3 -5 -3 47 0 52 1 74 3 48 2 -27 2 -69 0
-95z m-20 -95 c-1 -40 -3 -8 -3 72 0 80 2 112 3 73 2 -40 2 -106 0 -145z m20
-15 c-3 -10 -5 -4 -5 12 0 17 2 24 5 18 2 -7 2 -21 0 -30z"/>
<path d="M2637 1102 c-22 -23 -27 -37 -27 -80 l0 -52 86 0 c65 0 85 -3 81 -13
-2 -7 -41 -65 -86 -129 -78 -112 -82 -119 -79 -165 l3 -48 159 -3 160 -3 33
33 c30 29 34 38 31 78 l-3 45 -83 3 c-62 2 -83 6 -79 15 3 7 41 67 86 132 76
112 82 123 79 165 l-3 45 -165 3 -166 2 -27 -28z m343 -30 c0 -32 -15 -61 -89
-169 -67 -97 -87 -133 -78 -142 6 -6 44 -11 89 -11 l78 0 0 -40 0 -41 -152 3
-153 3 -3 35 c-2 30 10 53 88 164 50 72 89 135 87 140 -2 6 -41 12 -90 14
l-87 3 0 39 0 40 155 0 155 0 0 -38z m-353 -24 c-3 -8 -6 -5 -6 6 -1 11 2 17
5 13 3 -3 4 -12 1 -19z m20 -10 c-3 -8 -6 -5 -6 6 -1 11 2 17 5 13 3 -3 4 -12
1 -19z m-20 -360 c-3 -7 -5 -2 -5 12 0 14 2 19 5 13 2 -7 2 -19 0 -25z m20 0
c-3 -8 -6 -5 -6 6 -1 11 2 17 5 13 3 -3 4 -12 1 -19z"/>
<path d="M579 365 c-29 -16 -43 -52 -34 -88 4 -15 1 -28 -9 -36 -24 -20 -30
-74 -12 -109 11 -22 28 -35 57 -43 61 -19 114 2 159 64 l35 47 8 -32 c19 -72
41 -75 69 -8 11 28 24 50 28 50 4 0 11 -21 16 -47 10 -53 32 -67 64 -38 16 14
18 14 23 0 11 -28 55 -18 77 18 l20 32 0 -58 c0 -32 -5 -67 -10 -78 -14 -26
-58 -24 -88 4 l-25 22 12 -22 c25 -48 89 -54 112 -12 12 23 14 104 3 152 l-6
31 -22 -45 c-25 -53 -59 -62 -64 -16 -5 38 23 67 62 67 26 1 28 2 13 11 -26
15 -69 -10 -89 -52 -20 -42 -45 -66 -58 -53 -4 5 -12 29 -17 53 -12 64 -29 62
-59 -5 -28 -63 -38 -61 -49 8 -9 52 -21 55 -44 11 -38 -75 -94 -107 -161 -92
-43 10 -60 32 -60 80 0 44 19 62 54 53 35 -8 57 1 50 21 -5 11 -16 15 -38 13
-29 -3 -31 -1 -34 33 -4 45 15 61 65 57 33 -3 39 -7 43 -33 4 -20 8 -26 13
-17 13 19 -1 48 -29 60 -32 15 -43 15 -75 -3z m41 -115 c0 -5 -6 -10 -14 -10
-8 0 -18 5 -21 10 -3 6 3 10 14 10 12 0 21 -4 21 -10z"/>
<path d="M2471 263 c2 -108 6 -100 11 20 2 42 0 77 -4 77 -5 0 -7 -44 -7 -97z"/>
<path d="M1146 302 c-3 -6 -1 -14 5 -17 15 -10 25 3 12 16 -7 7 -13 7 -17 1z"/>
<path d="M1471 234 c-12 -16 -21 -37 -19 -48 3 -27 -19 -66 -37 -66 -8 0 -17
12 -21 28 -21 95 -40 102 -68 23 -17 -47 -21 -51 -32 -36 -7 9 -16 34 -19 56
-8 46 -18 49 -34 11 -6 -15 -22 -41 -36 -57 -21 -25 -26 -28 -35 -15 -5 8 -10
36 -10 63 0 26 -3 47 -7 47 -5 0 -16 -18 -25 -40 -19 -46 -16 -53 6 -12 l15
27 1 -40 c1 -78 37 -85 80 -15 l24 39 16 -42 c22 -60 44 -60 65 2 9 28 20 51
24 51 5 0 12 -19 17 -41 12 -55 35 -70 66 -42 23 20 23 20 42 2 26 -26 87 -25
111 1 17 19 18 19 43 0 53 -43 112 -20 155 59 22 41 35 37 56 -18 21 -57 43
-71 70 -47 12 11 21 24 21 29 0 6 -9 1 -21 -12 -28 -30 -40 -23 -59 33 -12 36
-23 51 -48 63 -36 17 -52 12 -32 -11 10 -13 8 -22 -10 -51 -35 -57 -90 -73
-124 -36 -17 19 -17 20 9 37 36 23 50 51 34 70 -29 35 -83 -5 -81 -59 1 -27
-4 -40 -21 -52 -27 -19 -67 -19 -93 -1 -18 14 -18 16 14 49 37 38 39 70 6 75
-14 2 -29 -7 -43 -24z m50 -23 c-14 -25 -48 -45 -55 -32 -10 15 12 59 31 63
26 6 36 -7 24 -31z m159 17 c0 -14 -40 -58 -52 -58 -17 0 -7 50 14 64 22 16
38 13 38 -6z"/>
<path d="M2185 185 c-9 -30 -20 -57 -25 -60 -14 -8 -30 29 -30 69 0 46 -12 46
-33 1 -9 -19 -13 -35 -8 -35 4 0 13 10 19 23 10 21 11 21 11 -9 2 -66 52 -86
66 -25 7 33 25 52 25 27 0 -50 40 -82 68 -54 9 9 12 2 12 -33 0 -24 5 -51 11
-59 7 -11 8 9 4 65 l-7 80 27 -32 c31 -39 49 -41 70 -9 20 29 11 71 -18 91
-23 16 -77 20 -77 6 0 -5 9 -7 20 -4 34 9 70 -23 70 -61 0 -21 -6 -36 -15 -40
-16 -6 -51 26 -61 56 -8 26 -24 22 -24 -5 0 -27 -33 -62 -49 -53 -5 4 -15 31
-21 61 -6 30 -13 55 -15 55 -3 0 -12 -25 -20 -55z"/>
<path d="M2466 121 c-4 -5 -2 -12 3 -15 5 -4 12 -2 15 3 4 5 2 12 -3 15 -5 4
-12 2 -15 -3z"/>
</g>
</svg>
